<?xml version="1.0" encoding="UTF-8" standalone="no"?>
<svg
   xmlns:dc="http://purl.org/dc/elements/1.1/"
   xmlns:cc="http://creativecommons.org/ns#"
   xmlns:rdf="http://www.w3.org/1999/02/22-rdf-syntax-ns#"
   xmlns:svg="http://www.w3.org/2000/svg"
   xmlns="http://www.w3.org/2000/svg"
   width="100%"
   height="100%"
   viewBox="0 0 64 64"
   version="1.1"
   xml:space="preserve"
   style="fill-rule:evenodd;clip-rule:evenodd;stroke-linecap:round;stroke-linejoin:round;stroke-miterlimit:2;"
   id="svg19">
  <metadata
   id="metadata25">
    <rdf:RDF>
      <cc:Work
   rdf:about="">
        <dc:format>image/svg+xml</dc:format>

        <dc:type
   rdf:resource="http://purl.org/dc/dcmitype/StillImage" />

      </cc:Work>

    </rdf:RDF>

  </metadata>

  <defs
   id="defs23" />

  
  <circle
   cx="32"
   cy="32"
   r="14"
   style="fill:none;stroke:#222a33;stroke-width:1.5px;"
   id="circle3" />

  <path
   d="M32,56c-13.246,0 -24,-10.754 -24,-24c0,-8.876 4.829,-16.633 12,-20.785"
   style="fill:none;stroke:#222a33;stroke-width:1.5px;"
   id="path5" />

  <path
   d="M32,8c13.246,0 24,10.754 24,24c0,8.876 -4.829,16.633 -12,20.785"
   style="fill:none;stroke:#222a33;stroke-width:1.5px;"
   id="path7" />

  <path
   d="M30,59l3,-3l-3,-3"
   style="fill:none;stroke:#222a33;stroke-width:1.5px;"
   id="path9" />

  <path
   d="M33,11l-3,-3l3,-3"
   style="fill:none;stroke:#222a33;stroke-width:1.5px;"
   id="path11" />

  <path
   d="M22.375,36.5c0,0 0.726,-0.415 1.414,-0.808c0.761,-0.435 1.683,-0.477 2.48,-0.115c0.957,0.435 2.255,1.025 3.16,1.436c0.671,0.305 1.448,0.261 2.08,-0.118c0,0 0,0 0,-0.001c0.889,-0.533 2.02,-0.432 2.799,0.251c0.148,0.129 0.301,0.263 0.456,0.399c0.566,0.495 0.892,1.209 0.895,1.961c0.003,0.752 -0.317,1.469 -0.879,1.969c-0.001,0.001 -0.002,0.001 -0.003,0.002c-0.571,0.507 -0.892,1.238 -0.88,2.002c0.012,0.763 0.357,1.483 0.943,1.972c0.154,0.128 0.249,0.207 0.249,0.207"
   style="fill:none;stroke:#222a33;stroke-width:1.5px;"
   id="path13" />

  <path
   d="M43,31.5c0,0 -0.126,0.076 -0.322,0.193c-1.227,0.736 -2.814,0.398 -3.635,-0.774c-0.446,-0.637 -0.918,-1.312 -1.296,-1.852c-0.47,-0.671 -0.594,-1.525 -0.335,-2.303c0,0 0,0 0,0c0.352,-1.057 0,-2.221 -0.88,-2.906c-0.405,-0.315 -0.848,-0.66 -1.268,-0.986c-1.026,-0.798 -1.346,-2.208 -0.765,-3.37c0.314,-0.629 0.581,-1.162 0.581,-1.162"
   style="fill:none;stroke:#222a33;stroke-width:1.5px;"
   id="path15" />

  <path
   d="M22,32c0,0 0.576,-5.57 5,-7"
   style="fill:none;stroke:#222a33;stroke-width:1.5px;"
   id="path17" />

</svg>
