<?xml version="1.0" encoding="UTF-8" standalone="no"?>
<svg
   xmlns:dc="http://purl.org/dc/elements/1.1/"
   xmlns:cc="http://creativecommons.org/ns#"
   xmlns:rdf="http://www.w3.org/1999/02/22-rdf-syntax-ns#"
   xmlns:svg="http://www.w3.org/2000/svg"
   xmlns="http://www.w3.org/2000/svg"
   width="100%"
   height="100%"
   viewBox="0 0 64 64"
   version="1.1"
   xml:space="preserve"
   style="fill-rule:evenodd;clip-rule:evenodd;stroke-linecap:round;stroke-linejoin:round;stroke-miterlimit:2;"
   id="svg17">
  <metadata
   id="metadata23">
    <rdf:RDF>
      <cc:Work
   rdf:about="">
        <dc:format>image/svg+xml</dc:format>

        <dc:type
   rdf:resource="http://purl.org/dc/dcmitype/StillImage" />

      </cc:Work>

    </rdf:RDF>

  </metadata>

  <defs
   id="defs21" />

  
  <circle
   cx="32"
   cy="34"
   r="12"
   style="fill:none;stroke:#222a33;stroke-width:1.5px;"
   id="circle3" />

  <path
   d="M42.5,47.612l-1,1.059"
   style="fill:none;stroke:#222a33;stroke-width:1.5px;"
   id="path5" />

  <path
   d="M35.994,54.5l-3.994,4.229l-21.681,-22.956c-5.394,-5.711 -5.136,-14.727 0.575,-20.121c5.711,-5.394 14.727,-5.136 20.12,0.575l0.986,1.044l0.986,-1.044c5.393,-5.711 14.409,-5.969 20.12,-0.575c5.711,5.394 5.969,14.41 0.575,20.121l-7.77,8.227"
   style="fill:none;stroke:#222a33;stroke-width:1.5px;"
   id="path7" />

  <path
   d="M27.05,44c0,0 0.624,-0.833 1.273,-1.697c0.855,-1.14 0.898,-2.696 0.108,-3.882c-0.108,-0.162 -0.206,-0.308 -0.284,-0.426c-0.129,-0.192 -0.197,-0.418 -0.197,-0.65c0,0 0,0 0,0c0,-1.364 -0.962,-2.537 -2.299,-2.805c-0.009,-0.002 -0.017,-0.003 -0.026,-0.005c-1.309,-0.262 -2.32,-1.306 -2.54,-2.623c-0.05,-0.302 -0.085,-0.512 -0.085,-0.512"
   style="fill:none;stroke:#222a33;stroke-width:1.5px;"
   id="path9" />

  <path
   d="M35.591,33c-1.054,0 -1.91,-0.856 -1.91,-1.909c0,-1.054 0.856,-1.91 1.91,-1.91c1.053,0 1.909,0.856 1.909,1.91"
   style="fill:none;stroke:#222a33;stroke-width:1.5px;"
   id="path11" />

  <path
   d="M26,27.491c0.522,-0.465 1.164,-0.969 1.95,-1.491"
   style="fill:none;stroke:#222a33;stroke-width:1.5px;"
   id="path13" />

  <path
   d="M50,18c0,0 4.389,2.318 4,10"
   style="fill:none;stroke:#222a33;stroke-width:1.5px;"
   id="path15" />

</svg>
